<svg width="67" height="67" viewBox="0 0 67 67" fill="none" xmlns="http://www.w3.org/2000/svg">
<path d="M40.8281 46.213H35.9798V30.3594C35.9798 30.0715 35.7442 29.8359 35.4563 29.8359H31.5306C31.2427 29.8359 31.0071 30.0715 31.0071 30.3594V46.213H26.1719C25.7335 46.213 25.4914 46.7168 25.7597 47.057L33.0878 56.3284C33.1367 56.391 33.1993 56.4416 33.2707 56.4764C33.3421 56.5112 33.4205 56.5293 33.5 56.5293C33.5794 56.5293 33.6578 56.5112 33.7293 56.4764C33.8007 56.4416 33.8632 56.391 33.9122 56.3284L41.2403 47.057C41.5086 46.7168 41.2665 46.213 40.8281 46.213Z" fill="#ED4C5C"/>
<path d="M53.0897 23.9931C50.093 16.0892 42.4573 10.4688 33.5131 10.4688C24.5688 10.4688 16.9332 16.0826 13.9365 23.9865C8.3292 25.4587 4.1875 30.5687 4.1875 36.6406C4.1875 43.8706 10.0435 49.7266 17.2669 49.7266H19.8906C20.1785 49.7266 20.4141 49.491 20.4141 49.2031V45.2773C20.4141 44.9895 20.1785 44.7539 19.8906 44.7539H17.2669C15.0619 44.7539 12.9878 43.8771 11.4437 42.2872C9.90605 40.7038 9.08818 38.5708 9.16016 36.3593C9.21904 34.6319 9.80791 33.0093 10.8744 31.6418C11.9671 30.2481 13.4981 29.234 15.1993 28.7825L17.6791 28.1348L18.5886 25.74C19.1513 24.2482 19.9364 22.8546 20.9244 21.5918C21.8998 20.3402 23.0552 19.2399 24.3529 18.3269C27.0421 16.4359 30.2089 15.4349 33.5131 15.4349C36.8173 15.4349 39.9841 16.4359 42.6732 18.3269C43.9753 19.2429 45.1269 20.3421 46.1018 21.5918C47.0897 22.8546 47.8749 24.2548 48.4376 25.74L49.3405 28.1282L51.8138 28.7825C55.3601 29.7378 57.8398 32.9635 57.8398 36.6406C57.8398 38.8063 56.9958 40.8478 55.4647 42.3788C54.7139 43.134 53.8207 43.7328 52.8369 44.1405C51.853 44.5482 50.7981 44.7567 49.7331 44.7539H47.1094C46.8215 44.7539 46.5859 44.9895 46.5859 45.2773V49.2031C46.5859 49.491 46.8215 49.7266 47.1094 49.7266H49.7331C56.9565 49.7266 62.8125 43.8706 62.8125 36.6406C62.8125 30.5753 58.6839 25.4718 53.0897 23.9931Z" fill="#ED4C5C"/>
</svg>
